<?xml version="1.0" encoding="utf-8"?>
<!-- Generator: Adobe Illustrator 23.0.1, SVG Export Plug-In . SVG Version: 6.00 Build 0)  -->
<svg version="1.1" id="图层_1" xmlns="http://www.w3.org/2000/svg" xmlns:xlink="http://www.w3.org/1999/xlink" x="0px" y="0px"
	 viewBox="0 0 845.74 225.01" style="enable-background:new 0 0 845.74 225.01;" xml:space="preserve">
<style type="text/css">
	.st0{fill:url(#SVGID_1_);}
</style>
<linearGradient id="SVGID_1_" gradientUnits="userSpaceOnUse" x1="13.4348" y1="112.5046" x2="830.4783" y2="112.5046">
	<stop  offset="0" style="stop-color:#E4FC5D"/>
	<stop  offset="1" style="stop-color:#CCEB46"/>
</linearGradient>
<path class="st0" d="M804.07,8.96H116.98C59.8,8.96,13.43,55.32,13.43,112.5c0,53.77,40.99,97.97,93.42,103.06
	c3.33,0.32,6.71,0.49,10.12,0.49c3.42,0,6.8-0.17,10.14-0.49l562.62-0.04c11.5,0,20.82-9.32,20.82-20.82v-65.2
	c0-18.75,15.2-33.95,33.95-33.95h64.52c11.84,0,21.44-9.6,21.44-21.44V35.37C830.48,20.84,818.59,8.96,804.07,8.96z"/>
</svg>
