<?xml version="1.0" encoding="utf-8"?>
<!-- Generator: Adobe Illustrator 23.0.1, SVG Export Plug-In . SVG Version: 6.00 Build 0)  -->
<svg version="1.1" id="图层_1" xmlns="http://www.w3.org/2000/svg" xmlns:xlink="http://www.w3.org/1999/xlink" x="0px" y="0px"
	 viewBox="0 0 1417.32 1417.32" style="enable-background:new 0 0 1417.32 1417.32;" xml:space="preserve">
<style type="text/css">
	.st0{opacity:0.3;fill:url(#SVGID_1_);}
	.st1{fill:url(#SVGID_2_);}
</style>
<linearGradient id="SVGID_1_" gradientUnits="userSpaceOnUse" x1="25.0514" y1="708.6978" x2="1391.6166" y2="708.6978">
	<stop  offset="0" style="stop-color:#D8E368"/>
	<stop  offset="1" style="stop-color:#C0D84E"/>
</linearGradient>
<path class="st0" d="M921.82,1391.98H494.84c-259.46,0-469.79-210.33-469.79-469.79V495.21c0-259.46,210.33-469.79,469.79-469.79
	h426.98c259.46,0,469.79,210.33,469.79,469.79v426.98C1391.62,1181.65,1181.28,1391.98,921.82,1391.98z"/>
<g>
	<linearGradient id="SVGID_2_" gradientUnits="userSpaceOnUse" x1="367" y1="708.6978" x2="1049.668" y2="708.6978">
		<stop  offset="0" style="stop-color:#D8E368"/>
		<stop  offset="1" style="stop-color:#C0D84E"/>
	</linearGradient>
	<path class="st1" d="M777.82,413.32c87.98,0,159.29,71.32,159.29,159.29c0,63.87-37.59,118.96-91.86,144.35v-0.01
		c117.58,30.45,204.41,137.27,204.41,264.36l0-0.38l0,0.38c0,12.57-10.19,22.75-22.76,22.75h-501
		c-12.39-0.2-22.38-10.31-22.38-22.75l0.04-4.52c2.04-125.68,88.98-230.71,205.96-260.25l0,0.01c-53.8-25.57-91-80.42-91-143.95
		C618.53,484.64,689.85,413.32,777.82,413.32L777.82,413.32z M595.57,466.27c7.44,0,14.73,0.61,21.83,1.79
		c-20.8,29.59-33.01,65.64-33.01,104.55c0,53.91,23.65,103.55,62.62,137.42c-99.1,43.16-168.32,138.29-176.75,248.52h-84.62
		c-10.33-0.17-18.65-8.59-18.65-18.96l0.03-3.77c1.7-104.73,74.14-192.26,171.63-216.88v0.01c-44.84-21.31-75.83-67.01-75.83-119.96
		C462.83,525.7,522.27,466.27,595.57,466.27L595.57,466.27z M595.57,466.27"/>
</g>
</svg>
