<?xml version="1.0" encoding="utf-8"?>
<!-- Generator: Adobe Illustrator 23.0.1, SVG Export Plug-In . SVG Version: 6.00 Build 0)  -->
<svg version="1.1" id="图层_1" xmlns="http://www.w3.org/2000/svg" xmlns:xlink="http://www.w3.org/1999/xlink" x="0px" y="0px"
	 viewBox="0 0 1417.32 1417.32" style="enable-background:new 0 0 1417.32 1417.32;" xml:space="preserve">
<style type="text/css">
	.st0{opacity:0.3;fill:url(#SVGID_1_);}
	.st1{fill:url(#SVGID_2_);}
</style>
<linearGradient id="SVGID_1_" gradientUnits="userSpaceOnUse" x1="25.3788" y1="708.6614" x2="1391.944" y2="708.6614">
	<stop  offset="0" style="stop-color:#3B97FA"/>
	<stop  offset="1" style="stop-color:#48C5FB"/>
</linearGradient>
<path class="st0" d="M922.15,1391.94H495.17c-259.46,0-469.79-210.33-469.79-469.79V495.17c0-259.46,210.33-469.79,469.79-469.79
	h426.98c259.46,0,469.79,210.33,469.79,469.79v426.98C1391.94,1181.61,1181.61,1391.94,922.15,1391.94z"/>
<g>
	<g>
		<linearGradient id="SVGID_2_" gradientUnits="userSpaceOnUse" x1="344" y1="708.9008" x2="1072.176" y2="708.9008">
			<stop  offset="0" style="stop-color:#3B97FA"/>
			<stop  offset="1" style="stop-color:#48C5FB"/>
		</linearGradient>
		<path class="st1" d="M708.09,390.32c201.08,0,364.09,142.63,364.09,318.58c0,175.95-163.01,318.58-364.09,318.58
			c-74.19,0-143.19-19.41-200.74-52.75l-116.72,37.7c-5.12,1.65-10.65,1.44-15.62-0.6c-11.63-4.77-17.2-18.05-12.43-29.68
			l40.59-99.08C365.75,833.01,344,773.18,344,708.9C344,532.96,507.01,390.32,708.09,390.32L708.09,390.32z M708.09,663.39
			c-25.14,0-45.51,20.38-45.51,45.51c0,25.13,20.38,45.51,45.51,45.51c25.13,0,45.51-20.38,45.51-45.51
			C753.6,683.76,733.22,663.39,708.09,663.39L708.09,663.39z M526.04,663.39c-25.13,0-45.51,20.38-45.51,45.51
			c0,25.13,20.38,45.51,45.51,45.51c25.14,0,45.51-20.38,45.51-45.51C571.55,683.76,551.18,663.39,526.04,663.39L526.04,663.39z
			 M890.13,663.39c-25.13,0-45.51,20.38-45.51,45.51c0,25.13,20.38,45.51,45.51,45.51c25.14,0,45.51-20.38,45.51-45.51
			C935.65,683.76,915.27,663.39,890.13,663.39L890.13,663.39z M890.13,663.39"/>
	</g>
</g>
</svg>
