<?xml version="1.0" encoding="utf-8"?>
<!-- Generator: Adobe Illustrator 23.0.1, SVG Export Plug-In . SVG Version: 6.00 Build 0)  -->
<svg version="1.1" id="图层_1" xmlns="http://www.w3.org/2000/svg" xmlns:xlink="http://www.w3.org/1999/xlink" x="0px" y="0px"
	 viewBox="0 0 1417.32 1417.32" style="enable-background:new 0 0 1417.32 1417.32;" xml:space="preserve">
<style type="text/css">
	.st0{fill:url(#SVGID_1_);}
	.st1{fill:none;}
	.st2{fill:#FFFFFF;}
</style>
<linearGradient id="SVGID_1_" gradientUnits="userSpaceOnUse" x1="24.2362" y1="709.1696" x2="1390.8014" y2="709.1696">
	<stop  offset="0" style="stop-color:#D8E368"/>
	<stop  offset="1" style="stop-color:#C0D84E"/>
</linearGradient>
<path class="st0" d="M707.52,1392.45L707.52,1392.45c-377.37,0-683.28-305.92-683.28-683.28v0c0-377.37,305.92-683.28,683.28-683.28
	h0c377.37,0,683.28,305.92,683.28,683.28v0C1390.8,1086.54,1084.89,1392.45,707.52,1392.45z"/>
<path class="st1" d="M397,430.32v557.76h622.8V430.32H397z M1017.34,749.54l-2.57,32.2c-6.09,76.3-66.67,136.9-142.97,143.01
	l-32.2,2.57c-14.63,1.17-31.59,2.11-49.08,2.84l-52,46.44c-15.69,14.03-39.42,14.03-55.11,0l-51.74-46.23
	c-19.4-0.75-38.34-1.77-54.5-3.06l-32.2-2.58c-76.32-6.1-136.93-66.71-143-143.04l-2.82-35.2c-2.86-35.78-2.86-94.38,0-130.18
	l2.82-35.2c6.09-76.31,66.69-136.91,143-143l32.2-2.57c38.4-3.07,92.7-4.6,131.2-4.6s92.8,1.53,131.2,4.6l32.2,2.57
	c76.31,6.09,136.91,66.69,143,143l2.57,32.2C1020.4,651.73,1020.6,728.04,1017.34,749.54z"/>
<path class="st2" d="M1014.77,581.11c-6.09-76.31-66.69-136.91-143-143l-32.2-2.57c-38.4-3.07-92.69-4.6-131.2-4.6
	s-92.8,1.53-131.2,4.6l-32.2,2.57c-76.31,6.09-136.91,66.69-143,143l-2.82,35.2c-2.86,35.8-2.86,94.4,0,130.18l2.82,35.2
	c6.07,76.32,66.68,136.94,143,143.04l32.2,2.58c16.15,1.29,35.1,2.31,54.5,3.06l51.74,46.23c15.7,14.03,39.42,14.03,55.11,0
	l52-46.44c17.5-0.73,34.45-1.67,49.08-2.84l32.2-2.57c76.3-6.11,136.88-66.71,142.97-143.01l2.57-32.2
	c3.26-21.5,3.06-97.81,0-136.23L1014.77,581.11z M567.37,712.07c-8.77,8.77-20.66,13.69-33.06,13.69c-18.91,0-35.97-11.4-43.2-28.87
	c-7.23-17.47-3.23-37.59,10.14-50.96c13.38-13.37,33.49-17.37,50.96-10.13c17.47,7.24,28.86,24.29,28.86,43.2
	C581.07,691.41,576.14,703.31,567.37,712.07z M741.42,712.08c-8.77,8.77-20.66,13.69-33.07,13.69c-18.91,0-35.96-11.4-43.2-28.87
	c-7.24-17.47-3.24-37.59,10.14-50.96c13.38-13.37,33.49-17.37,50.96-10.13c17.48,7.24,28.87,24.29,28.86,43.2
	C755.12,691.41,750.19,703.31,741.42,712.08z M915.47,712.08c-8.77,8.77-20.67,13.69-33.07,13.68c0,0,0.01,0,0.01,0h-0.02
	c0,0,0,0,0.01,0c-18.91,0-35.95-11.4-43.19-28.87c-7.24-17.47-3.23-37.59,10.14-50.96c13.38-13.37,33.49-17.37,50.96-10.13
	c17.47,7.24,28.86,24.29,28.86,43.2C929.17,691.42,924.24,703.31,915.47,712.08z"/>
<polygon class="st2" points="882.4,725.76 882.39,725.76 882.39,725.76 "/>
</svg>
