<?xml version="1.0" encoding="utf-8"?>
<!-- Generator: Adobe Illustrator 23.0.1, SVG Export Plug-In . SVG Version: 6.00 Build 0)  -->
<svg version="1.1" id="图层_1" xmlns="http://www.w3.org/2000/svg" xmlns:xlink="http://www.w3.org/1999/xlink" x="0px" y="0px"
	 viewBox="0 0 1417.32 1417.32" style="enable-background:new 0 0 1417.32 1417.32;" xml:space="preserve">
<style type="text/css">
	.st0{fill:url(#SVGID_1_);}
	.st1{fill:none;}
	.st2{fill:#FFFFFF;}
</style>
<linearGradient id="SVGID_1_" gradientUnits="userSpaceOnUse" x1="24.2362" y1="709.1696" x2="1390.8014" y2="709.1696">
	<stop  offset="0" style="stop-color:#D8E368"/>
	<stop  offset="1" style="stop-color:#C0D84E"/>
</linearGradient>
<path class="st0" d="M707.52,1392.45L707.52,1392.45c-377.37,0-683.28-305.92-683.28-683.28v0c0-377.37,305.92-683.28,683.28-683.28
	h0c377.37,0,683.28,305.92,683.28,683.28v0C1390.8,1086.54,1084.89,1392.45,707.52,1392.45z"/>
<path class="st1" d="M450,401.32v615.84h516V401.32H450z M791.5,965.1c-16.22,31.39-48.59,51.1-83.93,51.1
	c-35.33,0-67.71-19.72-83.92-51.1c-1.56-3.01-1.4-6.62,0.41-9.48c1.81-2.86,5.01-4.54,8.39-4.42c23.71,0.97,49.02,1.5,75.31,1.5
	c26.13,0,51.29-0.52,74.88-1.48c3.39-0.15,6.6,1.53,8.43,4.39C792.89,958.47,793.06,962.09,791.5,965.1z M946.85,893.63
	c-20.04,14.29-119.46,25.14-239.1,25.14c-117.78,0-215.97-10.52-238.1-24.48c-23.01-9.98-28.05-44.7-3.01-59.15l8.99-5.2
	c16.08-9.29,25.98-26.44,25.99-45.01V646.48c0-89.13,57.81-164.75,138.01-191.45c8.81-2.85,15.72-9.74,18.59-18.53
	c6.45-20.38,25.32-34.26,46.7-34.35c21.38-0.09,40.37,13.62,47,33.94c2.87,8.93,9.82,15.97,18.72,18.95
	c80.17,26.7,137.98,102.32,137.98,191.45v136.57c-0.01,18.02,9.61,34.67,25.22,43.67l14.56,8.43
	C972.91,849.29,968.59,882.87,946.85,893.63z"/>
<g>
	<path class="st2" d="M782.64,951.22c-23.59,0.96-48.75,1.48-74.88,1.48c-26.29,0-51.6-0.53-75.31-1.5
		c-3.39-0.12-6.58,1.56-8.39,4.42c-1.81,2.86-1.97,6.47-0.41,9.48c16.22,31.39,48.59,51.1,83.92,51.1
		c35.33,0,67.71-19.72,83.93-51.1c1.56-3.02,1.39-6.63-0.43-9.49C789.24,952.75,786.03,951.07,782.64,951.22z"/>
	<path class="st2" d="M948.4,835.14l-14.56-8.43c-15.61-9-25.22-25.65-25.22-43.67V646.48c0-89.13-57.81-164.75-137.98-191.45
		c-8.9-2.98-15.85-10.02-18.72-18.95c-6.63-20.32-25.63-34.03-47-33.94c-21.38,0.09-40.25,13.98-46.7,34.35
		c-2.88,8.8-9.78,15.69-18.59,18.53c-80.19,26.7-138.01,102.32-138.01,191.45v138.46c-0.01,18.57-9.91,35.72-25.99,45.01l-8.99,5.2
		c-25.04,14.46-20,49.17,3.01,59.15c22.14,13.96,120.32,24.48,238.1,24.48c119.63,0,219.06-10.86,239.1-25.14
		C968.59,882.87,972.91,849.29,948.4,835.14z M843.23,683.27c-1.64,0.3-3.3,0.45-4.96,0.45c-13.52-0.02-24.91-10.09-26.59-23.5
		c-7.48-60.71-42.18-90.93-64.1-104.21c-10.47-6.29-15.42-18.82-12.06-30.57c2.3-8.01,8.18-14.5,15.93-17.57
		c7.74-3.07,16.47-2.39,23.64,1.85c8.71,5.17,16.96,11.06,24.69,17.6c25.17,21.38,56.8,60.48,65.05,125.54
		C866.64,667.09,857.36,680.64,843.23,683.27z"/>
</g>
</svg>
